<svg width="799" height="180" viewBox="0 0 799 180" fill="none" xmlns="http://www.w3.org/2000/svg">
<path d="M84.277 2.68899V83H57.2007V53.3997H32.1895V83H5.11326V2.68899H32.1895V31.142H57.2007V2.68899H84.277ZM106.587 2.68899H133.204V44.4507L160.854 2.68899H186.324V83H159.707V41.353L132.171 83H106.587V2.68899ZM279.921 2.68899V83H253.304V57.3005C247.95 58.9067 243.093 59.7098 238.733 59.7098C226.954 59.7098 217.967 56.918 211.772 51.3345C205.653 45.751 202.593 37.6052 202.593 26.897V2.68899H229.211V23.914C229.211 28.8092 230.281 32.4423 232.423 34.8134C234.565 37.108 237.815 38.2553 242.175 38.2553C246.688 38.2553 250.397 37.6434 253.304 36.4196V2.68899H279.921ZM368.911 62.5781V83H302.138V2.68899H367.42V23.1109H328.756V32.5188H362.716V52.0229H328.756V62.5781H368.911ZM449.077 23.6846H414.543V83H387.926V2.68899H449.077V23.6846ZM501.225 84.8357C492.582 84.8357 484.818 83.0382 477.934 79.4434C471.051 75.8485 465.658 70.8769 461.758 64.5285C457.857 58.1036 455.906 50.8756 455.906 42.8445C455.906 34.8134 457.857 27.6236 461.758 21.2753C465.658 14.8504 471.051 9.8405 477.934 6.24562C484.818 2.65075 492.582 0.853315 501.225 0.853315C509.868 0.853315 517.631 2.65075 524.515 6.24562C531.399 9.8405 536.791 14.8504 540.692 21.2753C544.593 27.6236 546.543 34.8134 546.543 42.8445C546.543 50.8756 544.593 58.1036 540.692 64.5285C536.791 70.8769 531.399 75.8485 524.515 79.4434C517.631 83.0382 509.868 84.8357 501.225 84.8357ZM501.225 62.9222C504.59 62.9222 507.611 62.1191 510.288 60.5129C513.042 58.8302 515.222 56.4974 516.828 53.5144C518.434 50.4549 519.237 46.8983 519.237 42.8445C519.237 38.7907 518.434 35.2723 516.828 32.2893C515.222 29.2299 513.042 26.897 510.288 25.2908C507.611 23.6081 504.59 22.7667 501.225 22.7667C497.859 22.7667 494.8 23.6081 492.046 25.2908C489.369 26.897 487.228 29.2299 485.621 32.2893C484.015 35.2723 483.212 38.7907 483.212 42.8445C483.212 46.8983 484.015 50.4549 485.621 53.5144C487.228 56.4974 489.369 58.8302 492.046 60.5129C494.8 62.1191 497.859 62.9222 501.225 62.9222ZM45.4982 179.836C37.0082 179.836 29.3595 178.076 22.5522 174.558C15.7449 170.963 10.3908 165.992 6.49002 159.643C2.66569 153.218 0.75352 145.952 0.75352 137.844C0.75352 129.737 2.66569 122.509 6.49002 116.161C10.3908 109.736 15.7449 104.764 22.5522 101.246C29.3595 97.6508 37.0082 95.8533 45.4982 95.8533C53.2999 95.8533 60.2602 97.2301 66.3791 99.9836C72.498 102.737 77.5461 106.714 81.5234 111.916L64.4287 127.175C59.457 120.903 53.6058 117.767 46.875 117.767C41.215 117.767 36.664 119.602 33.2221 123.274C29.7802 126.869 28.0593 131.726 28.0593 137.844C28.0593 143.963 29.7802 148.859 33.2221 152.53C36.664 156.125 41.215 157.922 46.875 157.922C53.6058 157.922 59.457 154.786 64.4287 148.514L81.5234 163.773C77.5461 168.975 72.498 172.952 66.3791 175.705C60.2602 178.459 53.2999 179.836 45.4982 179.836ZM174.303 97.689V178H147.686V118.685H129.329L129.1 127.978C128.794 139.451 127.876 148.859 126.346 156.201C124.816 163.544 122.139 169.281 118.315 173.411C114.491 177.465 109.022 179.491 101.909 179.491C98.3138 179.491 94.4894 178.994 90.4356 178L91.8124 156.316C92.8067 156.545 93.801 156.66 94.7954 156.66C97.6254 156.66 99.767 155.513 101.22 153.218C102.75 150.924 103.783 147.864 104.318 144.04C104.853 140.216 105.236 135.206 105.465 129.01L106.498 97.689H174.303ZM237.364 179.836C228.721 179.836 220.957 178.038 214.073 174.443C207.19 170.848 201.797 165.877 197.896 159.528C193.996 153.104 192.045 145.876 192.045 137.844C192.045 129.813 193.996 122.624 197.896 116.275C201.797 109.85 207.19 104.84 214.073 101.246C220.957 97.6508 228.721 95.8533 237.364 95.8533C246.007 95.8533 253.77 97.6508 260.654 101.246C267.538 104.84 272.93 109.85 276.831 116.275C280.731 122.624 282.682 129.813 282.682 137.844C282.682 145.876 280.731 153.104 276.831 159.528C272.93 165.877 267.538 170.848 260.654 174.443C253.77 178.038 246.007 179.836 237.364 179.836ZM237.364 157.922C240.729 157.922 243.75 157.119 246.427 155.513C249.181 153.83 251.361 151.497 252.967 148.514C254.573 145.455 255.376 141.898 255.376 137.844C255.376 133.791 254.573 130.272 252.967 127.289C251.361 124.23 249.181 121.897 246.427 120.291C243.75 118.608 240.729 117.767 237.364 117.767C233.998 117.767 230.939 118.608 228.185 120.291C225.508 121.897 223.366 124.23 221.76 127.289C220.154 130.272 219.351 133.791 219.351 137.844C219.351 141.898 220.154 145.455 221.76 148.514C223.366 151.497 225.508 153.83 228.185 155.513C230.939 157.119 233.998 157.922 237.364 157.922ZM376.135 148.973H369.136V178H342.748V148.973H335.52L322.212 178H291.12L312.689 135.779L292.267 97.689H320.491L334.832 127.634H342.748V97.689H369.136V127.634H376.594L391.164 97.689H419.388L399.081 135.779L420.535 178H389.444L376.135 148.973ZM513.251 97.689V178H486.174V148.4H461.163V178H434.087V97.689H461.163V126.142H486.174V97.689H513.251ZM576.404 179.836C567.761 179.836 559.998 178.038 553.114 174.443C546.23 170.848 540.838 165.877 536.937 159.528C533.036 153.104 531.086 145.876 531.086 137.844C531.086 129.813 533.036 122.624 536.937 116.275C540.838 109.85 546.23 104.84 553.114 101.246C559.998 97.6508 567.761 95.8533 576.404 95.8533C585.047 95.8533 592.811 97.6508 599.694 101.246C606.578 104.84 611.97 109.85 615.871 116.275C619.772 122.624 621.723 129.813 621.723 137.844C621.723 145.876 619.772 153.104 615.871 159.528C611.97 165.877 606.578 170.848 599.694 174.443C592.811 178.038 585.047 179.836 576.404 179.836ZM576.404 157.922C579.77 157.922 582.791 157.119 585.468 155.513C588.221 153.83 590.401 151.497 592.007 148.514C593.614 145.455 594.417 141.898 594.417 137.844C594.417 133.791 593.614 130.272 592.007 127.289C590.401 124.23 588.221 121.897 585.468 120.291C582.791 118.608 579.77 117.767 576.404 117.767C573.039 117.767 569.979 118.608 567.226 120.291C564.549 121.897 562.407 124.23 560.801 127.289C559.195 130.272 558.392 133.791 558.392 137.844C558.392 141.898 559.195 145.455 560.801 148.514C562.407 151.497 564.549 153.83 567.226 155.513C569.979 157.119 573.039 157.922 576.404 157.922ZM700.65 118.685H666.116V178H639.498V97.689H700.65V118.685ZM752.797 179.836C744.154 179.836 736.391 178.038 729.507 174.443C722.623 170.848 717.231 165.877 713.33 159.528C709.429 153.104 707.479 145.876 707.479 137.844C707.479 129.813 709.429 122.624 713.33 116.275C717.231 109.85 722.623 104.84 729.507 101.246C736.391 97.6508 744.154 95.8533 752.797 95.8533C761.44 95.8533 769.203 97.6508 776.087 101.246C782.971 104.84 788.363 109.85 792.264 116.275C796.165 122.624 798.115 129.813 798.115 137.844C798.115 145.876 796.165 153.104 792.264 159.528C788.363 165.877 782.971 170.848 776.087 174.443C769.203 178.038 761.44 179.836 752.797 179.836ZM752.797 157.922C756.162 157.922 759.184 157.119 761.861 155.513C764.614 153.83 766.794 151.497 768.4 148.514C770.007 145.455 770.81 141.898 770.81 137.844C770.81 133.791 770.007 130.272 768.4 127.289C766.794 124.23 764.614 121.897 761.861 120.291C759.184 118.608 756.162 117.767 752.797 117.767C749.432 117.767 746.372 118.608 743.619 120.291C740.942 121.897 738.8 124.23 737.194 127.289C735.588 130.272 734.784 133.791 734.784 137.844C734.784 141.898 735.588 145.455 737.194 148.514C738.8 151.497 740.942 153.83 743.619 155.513C746.372 157.119 749.432 157.922 752.797 157.922Z" fill="white" fill-opacity="0.1"/>
</svg>
