<svg width="893" height="358" viewBox="0 0 893 358" fill="none" xmlns="http://www.w3.org/2000/svg">
<path d="M300.752 266.732V358H20.9644V285.684L147.143 168.981C158.115 158.674 165.43 149.863 169.087 142.549C172.745 135.234 174.573 128.085 174.573 121.103C174.573 112.459 171.581 105.809 165.596 101.154C159.944 96.1667 151.632 93.6731 140.66 93.6731C130.02 93.6731 120.045 96.4992 110.736 102.151C101.426 107.804 94.2778 115.783 89.2905 126.091L0.51651 81.7036C13.816 56.7671 33.2664 37.1503 58.8679 22.8534C84.4694 8.224 115.391 0.909302 151.632 0.909302C179.228 0.909302 203.666 5.39787 224.945 14.375C246.224 23.3521 262.849 36.1529 274.818 52.7772C286.788 69.4015 292.772 88.5195 292.772 110.131C292.772 129.415 288.616 147.536 280.304 164.493C272.324 181.117 256.531 200.069 232.925 221.348L183.052 266.732H300.752ZM716.794 8.88897L569.17 358H453.465L305.841 8.88897H432.518L515.806 212.87L601.089 8.88897H716.794ZM892.316 8.88897V358H774.616V97.6629H714.768V8.88897H892.316Z" fill="white" fill-opacity="0.1"/>
</svg>
